<svg version="1.1" xmlns="http://www.w3.org/2000/svg" viewBox="0 0 540 321" width="540" height="321">
  <!-- svg-source:excalidraw -->
  
  <defs>
    <style>
      @font-face {
        font-family: "Virgil";
        src: url("https://excalidraw.com/Virgil.woff2");
      }
      @font-face {
        font-family: "Cascadia";
        src: url("https://excalidraw.com/Cascadia.woff2");
      }
    </style>
  </defs>
  <g transform="translate(180 265) rotate(0 66 1)" stroke="none" fill="#000000"><path d="M 135.36076011592678 -2.644080792681769 Q 135.36076011592678 -2.644080792681769 136.40339737062195 -1.2089079908581444 137.4460346253171 0.2262648109654799 136.40339737062195 -1.2089079908581444 135.36076011592678 -2.644080792681769 136.40339737062195 -1.2089079908581444 137.4460346253171 0.2262648109654799 137.44597247593074 2.0001907993060324 137.44591032654438 3.774116787646585 136.4031725120297 5.209216528484723 135.36043469751502 6.644316269322861 134.42037148887175 6.567051981246384 133.4803082802285 6.489787693169907 130.5894967398657 6.2005100005959415 127.69868519950288 5.911232308021976 126.68053823313454 3.506038424892095 125.66239126676622 1.1008445417622141 127.00978222148734 -1.1365911502088708 128.35717317620848 -3.3740268421799557 130.95927320709148 -3.59909636443689 133.56137323797452 -3.824165886693824 135.27293432953905 -1.8513152865690177 136.98449542110362 0.12153531355578862 136.39445612625906 2.6658298112721566 135.80441683141453 5.210124308988524 133.39922294828466 6.2282712753568505 130.9940290651548 7.246418241725177 128.7565933731837 5.8990272870040545 126.5191576812126 4.551636332282933 126.29408815895567 1.9495363013999074 126.06901863669873 -0.6525637294831181 128.04186923682354 -2.364124821047665 130.01471983694836 -4.075685912612212 132.5590143346647 -3.4856466177676793 135.1033088323811 -2.895607322923147 135.23203447415392 -2.7698440578024575 135.36076011592678 -2.644080792681768 136.40339737062195 -1.2089079908581444 137.4460346253171 0.22626481096547923 137.44597247593074 2.000190799306032 137.44591032654438 3.7741167876465846 136.4031725120297 5.209216528484723 135.36043469751502 6.644316269322862 67.68013599415457 5.644257400162589 -0.00016270920588112858 4.644198531002315 -1.3650428744800545 4.200669214881363 -2.729923039754228 3.75713989876041 -3.5734342977710587 2.596060712220389 -4.41694555578789 1.4349815256803673 -4.416895275878131 -0.00015474565051465383 -4.416844995968373 -1.4352910169813966 -3.573252383348602 -2.596311095942532 -2.729659770728831 -3.757331174903668 66.31555017259898 -3.2007059837927185 Z"></path></g><g transform="translate(403 268) rotate(0 3.5 15)" stroke="none" fill="#000000"><path d="M 4.009682651592166 -3.3889445309005604 Q 4.009682651592166 -3.3889445309005604 4.622777837440607 -1.886912960207147 5.235873023289047 -0.38488138951373374 4.622777837440607 -1.886912960207147 4.009682651592166 -3.3889445309005604 4.622777837440607 -1.886912960207147 5.235873023289047 -0.38488138951373374 4.849005442078614 1.190655985758159 4.4621378608681805 2.7661933610300515 3.2230777794758 3.813434814072359 1.9840176980834192 4.860676267114666 0.36604395349776975 4.9796111572930535 -1.2519297910878797 5.098546047471441 -2.6308062213400225 4.243745289186001 -4.009682651592166 3.388944530900561 -4.622777837440606 1.8869129602071475 -5.235873023289046 0.3848813895137342 -4.849005442078614 -1.1906559857581585 -4.462137860868181 -2.766193361030051 -3.223077779475801 -3.813434814072359 -1.984017698083421 -4.860676267114666 -0.36604395349777297 -4.979611157293054 1.251929791087875 -5.098546047471443 2.6308062213400203 -4.243745289186002 Z"></path></g><g transform="translate(419 288) rotate(0 -13.5 -2)" stroke="none" fill="#000000"><path d="M 4.991979104015084 1.6256213043254435 Q 4.991979104015084 1.6256213043254435 4.03752940311648 2.937494131517478 3.0830797022178764 4.249366958709512 4.03752940311648 2.937494131517478 4.991979104015084 1.6256213043254435 4.03752940311648 2.937494131517478 3.0830797022178764 4.249366958709512 1.5398141732081105 4.749682912123415 -0.0034513558016553425 5.249998865537318 -1.5460577345069402 4.747654256082788 -3.088664113212225 4.245309646628257 -4.041388136210001 2.932183041051633 -4.994112159207776 1.6190564354750088 -4.99304563161143 -0.003282434425217029 -4.991979104015084 -1.6256213043254428 -4.037529403116481 -2.9374941315174774 -3.083079702217877 -4.249366958709512 -1.539814173208111 -4.749682912123415 0.0034513558016548984 -5.249998865537318 1.5460577345069393 -4.747654256082788 3.0886641132122237 -4.245309646628258 4.041388136209999 -2.932183041051636 4.994112159207774 -1.6190564354750137 4.993045631611429 0.0032824344252149196 Z"></path></g><g transform="translate(423 294) rotate(0 -13.5 -10.5)" stroke="none" fill="#000000"><path d="M -1.60546875 5.3205735166352595 Q -1.60546875 5.3205735166352595 -3.4075927734375 5.379864658822422 -5.209716796875 5.4391558010095835 -3.4075927734375 5.379864658822422 -1.60546875 5.3205735166352595 -3.4075927734375 5.379864658822422 -5.209716796875 5.4391558010095835 -7.649718063544547 5.493617384015977 -10.089719330214095 5.54807896702237 -13.689632813886346 5.12254898023035 -17.289546297558598 4.69701899343833 -20.76302947722445 2.5899301096857705 -24.236512656890298 0.4828412259332109 -26.698922692343046 -2.143836661889706 -29.161332727795795 -4.770514549712623 -31.452863264331313 -7.1354283067210655 -33.74439380086683 -9.500342063729509 -34.95718065347472 -13.468089448110808 -36.16996750608261 -17.435836832492107 -34.37721817535937 -20.919379191454905 -32.58446884463613 -24.4029215504177 -29.190128257104558 -25.915927238197355 -25.795787669572988 -27.42893292597701 -22.173347651433602 -28.717797835108435 -18.550907633294216 -30.006662744239858 -14.794590257284264 -30.45067165660049 -11.038272881274313 -30.89468056896112 -7.673247082738748 -30.27874778658374 -4.308221284203183 -29.662815004206358 -0.9752926146396632 -27.08354213624556 2.357636054923857 -24.50426926828476 4.086246003661593 -21.08103773874302 5.814855952399329 -17.65780620920128 7.0591889617008485 -13.364246380468018 8.303521971002368 -9.070686551734754 9.066558731442836 -6.1197177326046575 9.829595491883303 -3.16874891347456 9.282214142351773 -0.17793382694576376 8.734832792820244 2.8128812595830324 6.353899943271461 5.304485356384232 3.972967093722678 7.796089453185433 0.26577739590078275 8.823541236813902 -3.4414123019211127 9.85099302044237 -6.79693916652146 9.48540473875769 -10.152466031121808 9.11981645707301 -13.430595393143117 6.870911326066764 -16.708724755164425 4.622006195060519 -16.159439912319108 1.9844667637697635 -15.610155069473791 -0.6530726675209917 -13.153479316293268 -1.7589986749591404 -10.696803563112747 -2.864924682397289 -8.358092851190035 -1.5274792457042117 -6.019382139267322 -0.1900338090111342 -5.726738560754645 2.488153605295127 -5.434094982241967 5.166341019601388 -7.428782534908983 6.977293712917377 -9.423470087576 8.788246406233366 -12.061009518866756 8.238961563388049 -14.698548950157512 7.68967672054273 -15.80447495759566 5.233000967362209 -16.91040096503381 2.7763252141816865 -15.572955528340735 0.4376145022589766 -14.235510091647662 -1.9010962096637334 -11.557322677341398 -2.193739788176414 -8.879135263035135 -2.486383366689094 -7.068182569719147 -0.4916958140220825 -5.257229876403159 1.5029917386449292 -3.980475604757111 -0.6699736383958518 -2.703721333111063 -2.8429390154366327 -2.9775718266703546 -5.351575564532299 -3.2514223202296457 -7.8602121136279655 -4.249872342669701 -11.246322517741072 -5.2483223651097575 -14.63243292185418 -7.6039553063163385 -16.521705071891493 -9.95958824752292 -18.410977221928807 -13.314293833221324 -18.389219500283026 -16.66899941891973 -18.367461778637242 -19.482308167329197 -16.982388162122408 -22.295616915738666 -15.597314545607576 -21.246064967349795 -13.658892237139678 -20.196513018960925 -11.72046992867178 -18.163747378421817 -9.306680294581636 -16.13098173788271 -6.89289066049149 -13.08073175925423 -6.22048481375693 -10.030481780625749 -5.54807896702237 -7.6200992887503745 -5.493617384015977 -5.209716796875 -5.4391558010095835 -3.4075927734375 -5.379864658822422 -1.60546875 -5.3205735166352595 -0.802734375 -5.3205735166352595 0 -5.3205735166352595 1.5636773234080534 -4.81250395570723 3.127354646816107 -4.304434394779202 4.093760380119745 -2.9742910156203872 5.060166113423384 -1.6441476364615724 5.060166113423384 3.3306690738754696e-16 5.060166113423384 1.644147636461573 4.093760380119746 2.9742910156203877 3.1273546468161078 4.304434394779202 0.7609429484080539 4.81250395570723 Z"></path></g><g transform="translate(176 268) rotate(0 -4.5 12.5)" stroke="none" fill="#000000"><path d="M NaN NaN Q NaN NaN NaN NaN -5.379213620771712 4.8307098794616445 NaN NaN NaN NaN NaN NaN -5.379213620771712 4.8307098794616445 -6.900731192371129 6.7701522185699154 -8.422248763970547 8.709594557678185 -11.05079703603355 8.142214891506281 -13.679345308096556 7.574835225334375 -14.765347425158197 5.114797602474029 -15.85134954221984 2.654759979613684 -14.499473326891309 0.3301919761816998 -13.147597111562778 -1.9943760272502842 -10.472369189910989 -2.2670319851264957 -7.7971412682592 -2.5396879430027073 -6.004098445851798 -0.5356462415493547 -4.2110556234443965 1.468395459903998 -4.778435289616302 4.096943731967003 -5.345814955788207 6.7254920040300075 -7.805852578648552 7.811494121091649 -10.265890201508897 8.897496238153291 -12.59045820494088 7.545620022824764 -14.915026208372861 6.1937438074962365 -15.187682166249076 3.5185158858444447 -15.46033812412529 0.8432879641926525 -13.456296422671944 -0.9497548582147477 -11.452254721218596 -2.742797680622148 NaN NaN NaN NaN NaN NaN NaN NaN NaN NaN NaN NaN NaN NaN NaN NaN NaN NaN NaN NaN NaN NaN NaN NaN NaN NaN Z"></path></g><g transform="translate(180 267) rotate(0 -13 11.5)" stroke="none" fill="#000000"><path d="M -1.65234375 5.324057915626454 Q -1.65234375 5.324057915626454 -3.72216796875 5.37131670144726 -5.7919921875 5.4185754872680665 -3.72216796875 5.37131670144726 -1.65234375 5.324057915626454 -3.72216796875 5.37131670144726 -5.7919921875 5.4185754872680665 -8.778329014540539 5.420595441849408 -11.764665841581078 5.42261539643075 -14.673286221322906 6.15694772811784 -17.581906601064734 6.891280059804931 -19.083985356843613 9.836593301945555 -20.58606411262249 12.78190654408618 -20.674552608974572 15.597991472404134 -20.763041105326653 18.414076400722088 -17.24219790312712 19.253477052004957 -13.721354700927591 20.092877703287826 -10.023707621456186 20.09174226320704 -6.326060541984779 20.09060682312625 -4.12994898172915 19.252052489166605 -1.9338374214735214 18.41349815520696 -2.4333685023585097 15.158450796413225 -2.932899583243498 11.903403437619492 -3.160780457554542 8.932984193650363 -3.3886613318655865 5.962564949681234 -5.156149335504 1.68892552225166 -6.923637339142413 -2.5847139051779138 -6.477632047119708 -4.36624962015337 -6.031626755097003 -6.147785335128827 -4.6236404745745725 -7.32692267153455 -3.2156541940521426 -8.506060007940274 -1.3834898284960127 -8.632408580673296 0.4486745370601172 -8.758757153406318 1.0108599877636186 -7.940945053159812 1.57304543846712 -7.123132952913306 3.6338292409749156 -3.6157615107851333 5.694613043482711 -0.10839006865696138 4.456402990429528 2.2895992694661107 3.218192937376345 4.687588607589182 0.5503772020799056 5.095358400166583 -2.117438533216534 5.503128192743983 -4.015433970245446 3.5845009954356226 -5.913429407274357 1.6658737981272622 -5.476841125585921 -0.9973775369003256 -5.040252843897483 -3.6606288719279134 -2.6290171002682223 -4.872841390374469 -0.21778135663896167 -6.085053908821024 2.1802079814841107 -4.846843855767841 4.578197319607183 -3.6086338027146585 4.985967112184583 -0.9408180674182195 5.393736904761983 1.7269976678782195 3.4751097074536275 3.6249931049071304 1.5564825101452717 5.522988541936042 -1.1067688248823198 5.086400260247607 -3.7700201599099112 4.649811978559172 -4.982232678356468 2.238576234929916 -6.194445196803024 -0.17265950869933996 -6.559041267972718 -1.3786867069386273 -6.923637339142413 -2.5847139051779147 -6.477632047119708 -4.36624962015337 -6.031626755097003 -6.147785335128827 -4.623640474574573 -7.32692267153455 -3.215654194052143 -8.506060007940274 -1.3834898284960124 -8.632408580673296 0.44867453706011806 -8.758757153406318 4.3250882397996415 -3.1973955221606603 8.201501942539165 2.3639661090849975 8.569102911888287 5.615466825335647 8.936703881237408 8.866967541586297 8.933648518934529 11.911544460205569 8.930593156631652 14.95612137882484 8.916725444555563 18.435208840745087 8.902857732479474 21.914296302665335 7.51059025888419 25.176542829795448 6.118322785288907 28.43878935692556 3.1078573743308007 29.939365130190673 0.09739196337269451 31.439940903455785 -3.114335855092624 31.674666801479415 -6.326063673557942 31.909392699503044 -10.024254075783466 31.90819639465781 -13.72244447800899 31.907000089812577 -17.352788669859056 31.893869667825356 -20.983132861709123 31.880739245838132 -24.862968183912965 30.263074437998256 -28.742803506116807 28.645409630158383 -31.268654633362587 24.639164759856904 -33.79450576060837 20.632919889555424 -33.4798141881676 17.297591906465737 -33.16512261572684 13.96226392337605 -31.700458451306282 10.531634821740521 -30.235794286885724 7.101005720104992 -27.8759598732684 3.9164127531288995 -25.51612545965107 0.7318197861528066 -22.297702429958463 -1.792137357160966 -19.079279400265857 -4.316094500474739 -15.494571793990827 -4.869354948452744 -11.909864187715797 -5.42261539643075 -8.850928187607899 -5.420595441849408 -5.7919921875 -5.4185754872680665 -3.72216796875 -5.37131670144726 -1.65234375 -5.324057915626454 -0.826171875 -5.324057915626454 0 -5.324057915626454 1.5647013625781168 -4.815655624202357 3.1294027251562335 -4.307253332778261 4.096441349472782 -2.9762388538716475 5.063479973789331 -1.6452243749650342 5.063479973789331 3.3306690738754696e-16 5.063479973789331 1.6452243749650348 4.096441349472783 2.9762388538716475 3.1294027251562344 4.30725333277826 0.7385294875781172 4.815655624202357 Z"></path></g><g transform="translate(182 266) rotate(0 -50 -68)" stroke="none" fill="#000000"><path d="M -1.65234375 5.324057915626454 Q -1.65234375 5.324057915626454 -3.789425068043831 5.238068602146377 -5.926506386087662 5.1520792886663 -3.789425068043831 5.238068602146377 -1.65234375 5.324057915626454 -3.789425068043831 5.238068602146377 -5.926506386087662 5.1520792886663 -8.966410742788549 4.363212302448483 -12.006315099489434 3.5743453162306653 -14.593909452523473 1.7885014871793679 -17.18150380555751 0.002657658128070395 -19.571922951246158 -2.3236332390415333 -21.9623420969348 -4.649924136211137 -25.130528277324828 -6.335200437413653 -28.298714457714855 -8.02047673861617 -30.917994204998415 -10.195915540432964 -33.53727395228198 -12.371354342249756 -35.80865310906544 -14.750054753301686 -38.0800322658489 -17.128755164353617 -39.983290748142565 -19.568413925827848 -41.88654923043623 -22.008072687302075 -43.48298009235326 -24.715696073519158 -45.07941095427029 -27.42331945973624 -46.83621436698163 -30.64917102595783 -48.59301777969297 -33.87502259217942 -50.468881797870154 -37.59745859265417 -52.34474581604733 -41.31989459312892 -53.72461137466714 -45.515426357081296 -55.10447693328695 -49.71095812103367 -55.95686869958024 -52.91262768650543 -56.809260465873535 -56.11429725197719 -57.537553605335546 -59.31243899961099 -58.26584674479755 -62.51058074724478 -59.270841018333186 -66.07374414542971 -60.275835291868816 -69.63690754361465 -61.393100221916384 -73.70106089065948 -62.51036515196395 -77.76521423770431 -63.881706544412786 -81.98883458167326 -65.25304793686162 -86.2124549256422 -66.21378986235243 -89.5671195665788 -67.17453178784324 -92.92178420751539 -68.22538835676565 -96.28410220542094 -69.27624492568808 -99.64642020332647 -70.16755881295421 -103.48151288599189 -71.05887270022033 -107.3166055686573 -71.71242965835546 -110.73017470007608 -72.36598661649057 -114.14374383149487 -73.40574602735958 -117.51147922458378 -74.4455054382286 -120.8792146176727 -76.23408128858 -123.60629841328891 -78.02265713893142 -126.33338220890512 -81.2202758849499 -128.11471736551147 -84.41789463096839 -129.8960525221178 -87.85165557614448 -128.8312791616344 -91.28541652132058 -127.766505801151 -92.54333576393714 -124.75516261170112 -93.8012550065537 -121.74381942225125 -93.15267205079223 -119.16066668768894 -92.50408909503078 -116.57751395312663 -89.25388065344231 -115.53419415888737 -86.00367221185385 -114.49087436464814 -83.18446302305833 -112.87003556836821 -80.36525383426279 -111.24919677208828 -80.00113105720318 -109.91427037292185 -79.63700828014358 -108.57934397375541 -75.25091719373904 -112.07254732667444 -70.86482610733451 -115.56575067959346 -69.43325544755226 -114.40176700817798 -68.00168478777 -113.23778333676249 -67.52769223132488 -111.45464464397782 -67.05369967487975 -109.67150595119313 -67.71833426791935 -107.95031061102793 -68.38296886095893 -106.22911527086275 -71.1733233898305 -105.1287991215324 -73.96367791870209 -104.02848297220204 -76.37390812980942 -105.26939721426126 -78.78413834091677 -106.5103114563205 -79.19691540324762 -109.18961974830435 -79.60969246557846 -111.86892804028822 -77.68471079391648 -113.7777295989751 -75.75972912225451 -115.68653115766197 -73.08400038485122 -115.25115367717618 -70.40827164744793 -114.81577619669036 -69.18774553714829 -112.39515771358387 -67.96721942684863 -109.97453923047738 -69.20813366890786 -107.56430901937003 -70.44904791096708 -105.1540788082627 -73.12835620295095 -104.74130174593185 -75.80766449493481 -104.328524683601 -77.71646605362169 -106.25350635526297 -79.62526761230856 -108.17848802692495 -79.18989013182275 -110.85421676432824 -78.75451265133695 -113.52994550173153 -76.33389416823047 -114.75047161203119 -73.91327568512398 -115.97099772233084 -72.38905089622924 -115.76837420096214 -70.86482610733451 -115.56575067959346 -69.43325544755226 -114.40176700817798 -68.00168478777 -113.23778333676249 -67.52769223132488 -111.45464464397782 -67.05369967487975 -109.67150595119313 -67.71833426791935 -107.95031061102793 -68.38296886095893 -106.22911527086275 -71.10587376115998 -103.78205410755925 -73.82877866136104 -101.33499294425576 -76.9022840284454 -101.1363537573769 -79.97578939552974 -100.93771457049804 -83.3011059433922 -101.80514066857842 -86.62642249125466 -102.6725667666588 -90.23264797359258 -103.70484050388811 -93.83887345593051 -104.7371142411174 -97.73076293039165 -106.84617418255374 -101.62265240485279 -108.9552341239901 -103.49907021904409 -111.85242602491792 -105.3754880332354 -114.74961792584575 -105.59333538130745 -117.86778096400673 -105.81118272937951 -120.9859440021677 -105.02511040147573 -124.0222613191338 -104.23903807357195 -127.0585786360999 -102.75614477456742 -130.065195165475 -101.2732514755629 -133.07181169485008 -99.16923153386256 -135.55805154155223 -97.06521159216223 -138.04429138825435 -94.09450484297196 -139.5524781588465 -91.1237980937817 -141.06066492943867 -87.61949201464161 -141.4579330645933 -84.11518593550151 -141.85520119974797 -80.84907621777205 -141.0051810079196 -77.58296650004259 -140.15516081609118 -74.22276930337895 -137.54025065142898 -70.86257210671532 -134.92534048676677 -68.58463678703112 -132.12371195232856 -66.30670146734693 -129.32208341789038 -64.67761852676071 -125.91490940683818 -63.04853558617451 -122.50773539578599 -62.05352799884014 -118.53188143047306 -61.05852041150577 -114.55602746516014 -60.05757227143097 -110.82340745970887 -59.05662413135617 -107.09078745425761 -58.162064548458616 -103.00645795828368 -57.26750496556106 -98.92212846230974 -56.05758030614373 -95.04061116741978 -54.847655646726395 -91.15909387252982 -53.43537722609631 -87.01931117537413 -52.02309880546621 -82.87952847821842 -50.913192474263944 -79.5656832864528 -49.803286143061676 -76.25183809468717 -48.9364383972642 -72.03153310680813 -48.069590651466726 -67.8112281189291 -46.866629350117925 -63.57042190665567 -45.663668048769125 -59.32961569438225 -44.62451022512475 -55.332434152379065 -43.58535240148038 -51.33525261037589 -41.841365557591544 -46.968572479638325 -40.09737871370272 -42.601892348900755 -38.107606125022656 -38.86399934086704 -36.11783353634259 -35.12610633283332 -34.130567294838585 -31.665549472318673 -32.14330105333459 -28.20499261180403 -29.917997475170658 -25.60441317717815 -27.692693897006723 -23.003833742552267 -25.25892466213372 -20.92085378524872 -22.825155427260714 -18.837873827945174 -20.10282336299166 -16.660726718219774 -17.380491298722607 -14.483579608494372 -14.353669312037939 -11.677977183337514 -11.32684732535327 -8.872374758180658 -8.520229114268973 -7.392310699638063 -5.713610903184677 -5.912246641095469 -3.6829773265923387 -5.618152278360961 -1.65234375 -5.324057915626454 -0.826171875 -5.324057915626454 0 -5.324057915626454 1.5647013625781168 -4.815655624202357 3.1294027251562335 -4.307253332778261 4.096441349472782 -2.9762388538716475 5.063479973789331 -1.6452243749650342 5.063479973789331 3.3306690738754696e-16 5.063479973789331 1.6452243749650348 4.096441349472783 2.9762388538716475 3.1294027251562344 4.30725333277826 0.7385294875781172 4.815655624202357 Z"></path></g><g transform="translate(389 281) rotate(0 70.5 -81)" stroke="none" fill="#000000"><path d="M 3.086669921875 -17.26296216979761 Q 3.086669921875 -17.26296216979761 7.859031677246094 -17.221852281413675 12.631393432617188 -17.180742393029735 7.859031677246094 -17.221852281413675 3.086669921875 -17.26296216979761 7.859031677246094 -17.221852281413675 12.631393432617188 -17.180742393029735 17.13342865965042 -17.177310655135784 21.635463886683656 -17.17387891724183 24.76049703019629 -17.529268775214014 27.885530173708922 -17.884658633186202 30.97531554976372 -19.340560552714535 34.06510092581852 -20.796462472242865 36.6947400118202 -22.282836456320737 39.32437909782189 -23.769210440398613 42.120253499541136 -25.338902980297252 44.916127901260374 -26.90859552019589 47.721315158509654 -29.084369627277702 50.52650241575894 -31.26014373435951 52.88036730620432 -33.210164263394645 55.2342321966497 -35.16018479242979 57.399887282613 -37.71127538417997 59.5655423685763 -40.26236597593015 61.84099276751408 -43.75891806885007 64.11644316645186 -47.25547016176999 66.04708751737797 -50.3768704448933 67.97773186830409 -53.498270728016614 69.80254182743678 -56.590764334397605 71.62735178656948 -59.68325794077859 73.2102241547118 -62.68491489137424 74.79309652285411 -65.6865718419699 76.63732407875216 -69.65401038794226 78.48155163465022 -73.62144893391464 79.72454484977452 -77.86052854432847 80.96753806489882 -82.09960815474233 81.71211057722384 -85.94187448104606 82.45668308954886 -89.78414080734977 83.09651934402422 -93.25369756923624 83.73635559849957 -96.72325433112269 84.90081803991534 -100.69449823294661 86.0652804813311 -104.66574213477054 87.5168377060972 -108.39017186793167 88.96839493086331 -112.1146016010928 90.57550634068842 -115.7092924974236 92.18261775051353 -119.3039833937544 93.79817661526283 -122.22969202151096 95.41373548001214 -125.15540064926752 96.74462636927166 -128.70465595718514 98.07551725853119 -132.25391126510274 99.16672133726689 -135.58618670151463 100.25792541600259 -138.91846213792653 101.93583700255213 -142.33578629842214 103.61374858910168 -145.75311045891775 105.9322854027013 -147.93462737326905 108.2508222163009 -150.11614428762033 111.55087227569862 -151.90587623141954 114.85092233509636 -153.69560817521875 119.32189504940118 -154.79221550869988 123.792867763706 -155.88882284218104 127.2696215088333 -155.8925624684021 130.7463752539606 -155.89630209462317 134.30124110333173 -155.38390312903147 137.85610695270287 -154.87150416343974 140.44517536849025 -152.9299244754347 143.03424378427766 -150.98834478742964 144.5256623905595 -148.2554468268724 146.01708099684132 -145.52254886631513 146.48951864043065 -142.14029319962236 146.96195628401998 -138.75803753292956 146.65271103488513 -135.55656496608557 146.34346578575028 -132.35509239924158 144.89134480020874 -129.62402340093996 143.43922381466723 -126.89295440263834 141.19689916324322 -124.64467396804179 138.9545745118192 -122.39639353344523 136.00637305265727 -120.91746078281383 133.05817159349533 -119.43852803218242 129.48776962377852 -117.9869634534952 125.91736765406172 -116.53539887480798 122.48712225499506 -116.36890244059072 119.05687685592841 -116.20240600637347 115.38089948785407 -116.12592621953311 111.70492211977972 -116.04944643269278 107.96016878682082 -117.63532122221483 104.2154154538619 -119.22119601173688 102.97428018515087 -123.52085536881599 101.73314491643985 -127.8205147258951 102.92443881636859 -130.25803073001504 104.11573271629734 -132.69554673413495 106.78794957321537 -133.16450568324595 109.46016643013341 -133.63346463235695 111.4102518490522 -131.74724293667308 113.36033726797098 -129.8610212409892 112.98058331095504 -127.17467570132405 112.60082935393912 -124.48833016165888 110.20431638415299 -123.21656327578904 107.80780341436686 -121.94479638991922 105.37028741024693 -123.13609028984797 102.93277140612702 -124.32738418977671 102.46381245701602 -126.99960104669475 101.994853507905 -129.67181790361278 103.88107520358886 -131.62190332253158 105.76729689927274 -133.57198874145035 108.4536424389379 -133.19223478443442 111.13998797860307 -132.81248082741848 112.4117548644729 -130.41596785763235 113.68352175034273 -128.01945488784622 115.32000893396122 -128.03432524172047 116.95649611757969 -128.04919559559468 120.3635123026573 -128.09960567685494 123.77052848773491 -128.1500157581152 126.89213466760157 -128.83394204607526 130.01374084746823 -129.51786833403537 132.08591374247862 -132.8919997586092 134.15808663748905 -136.266131183183 133.38207728088082 -139.44796308947224 132.6060679242726 -142.62979499576144 129.56488417247462 -143.33724188534734 126.52370042067663 -144.04468877493326 122.88484766838675 -143.65246254951802 119.24599491609686 -143.26023632410275 116.45889359271882 -141.70872995242524 113.67179226934078 -140.15722358074777 111.95240616897769 -136.93372631297473 110.23302006861458 -133.71022904520166 109.1236559741815 -130.36921392873683 108.01429187974843 -127.02819881227201 106.60803221862474 -123.2603843004959 105.20177255750104 -119.49256978871979 103.58302496609224 -116.12018791508854 101.96427737468343 -112.74780604145728 100.2517370154148 -109.48473473979297 98.53919665614617 -106.22166343812867 97.42162776323016 -102.96486958340716 96.30405887031415 -99.70807572868566 95.56836474608856 -96.03480921349316 94.83267062186297 -92.36154269830067 94.08243127931132 -88.74671864355693 93.33219193675968 -85.1318945888132 92.36955277824978 -81.09383940656181 91.4069136197399 -77.05578422431043 90.52349633935717 -73.63678309597897 89.64007905897442 -70.21778196764751 88.28688278905464 -67.30224739607364 86.93368651913487 -64.38671282449977 85.42703957813691 -61.24207908970119 83.92039263713897 -58.097445354902625 82.37695359576938 -55.130753088151366 80.83351455439978 -52.16406082140011 78.95748771422987 -49.013642959087235 77.08146087405997 -45.86322509677436 75.33519946584347 -43.137692896907566 73.58893805762698 -40.412160697040775 71.47470113747659 -37.20450058619442 69.36046421732618 -33.996840475348066 66.76747584881075 -30.920407605051928 64.17448748029531 -27.84397473475579 61.361613490407095 -25.43921882563032 58.548739500518884 -23.03446291650485 55.395810680391236 -20.4946890630861 52.242881860263594 -17.954915209667348 49.27811155069305 -16.295748401314174 46.3133412411225 -14.636581592961 43.53501821471079 -13.226139254369373 40.75669518829908 -11.815696915777746 37.68480318755889 -10.464098102755724 34.61291118681871 -9.112499289733702 31.32836447557539 -8.173769944442574 28.043817764332076 -7.235040599151447 24.85550979404882 -7.0305808409547925 21.667201823765563 -6.826121082758137 17.149297628191377 -6.822689344864185 12.631393432617188 -6.819257606970233 7.859031677246094 -6.778147718586295 3.086669921875 -6.7370378302023575 1.5433349609375 -6.7370378302023575 0 -6.7370378302023575 -1.54674577339012 -7.2396059970418065 -3.09349154678024 -7.7421741638812565 -4.049433006690577 -9.057914706330664 -5.005374466600913 -10.37365524878007 -5.005374466600913 -11.999999999999984 -5.005374466600913 -13.626344751219898 -4.049433006690577 -14.942085293669304 -3.0934915467802404 -16.257825836118712 -0.0034108124526202044 -16.76039400295816 Z"></path></g><g transform="translate(20 71) rotate(0 36 -2.5)" stroke="none" fill="#000000"><path d="M NaN NaN Q NaN NaN NaN NaN 76.9490383422633 -4.187893000465981 NaN NaN NaN NaN NaN NaN 76.9490383422633 -4.187893000465981 75.51816095885184 -1.5101549578893785 74.08728357544038 1.167583084687224 71.16286641855166 2.588503066213639 68.23844926166295 4.009423047740054 65.74528351979907 4.892055653381254 63.25211777793519 5.7746882590224535 61.072606945593606 4.276473232849527 58.89309611325203 2.7782582066766004 58.824093206191755 0.13436820674054406 58.75509029913148 -2.5095217931955123 60.85348334920239 -4.119385868314507 62.9518763992733 -5.729249943433501 65.48768828302298 -4.977868666598262 68.02350016677266 -4.226487389763023 68.90613277241386 -1.7333216478991436 69.78876537805506 0.7598440939647362 68.29055035188213 2.9393549263063194 66.7923353257092 5.118865758647903 64.14844532577315 5.1878686657081765 61.5045553258371 5.256871572768449 59.894691250718104 3.1584785226975374 58.284827175599105 1.0600854726266253 59.03620845243434 -1.475726411123049 59.78758972926958 -4.011538294872723 62.335920037909744 -4.1334854246763975 64.8842503465499 -4.255432554480072 NaN NaN NaN NaN NaN NaN NaN NaN NaN NaN NaN NaN NaN NaN NaN NaN NaN NaN NaN NaN NaN NaN NaN NaN NaN NaN Z"></path></g><g transform="translate(11 69) rotate(0 61.5 14.5)" stroke="none" fill="#000000"><path d="M 1.79296875 -5.487111792468282 Q 1.79296875 -5.487111792468282 3.9993896484375 -5.546527408668144 6.205810546875 -5.605943024868006 3.9993896484375 -5.546527408668144 1.79296875 -5.487111792468282 3.9993896484375 -5.546527408668144 6.205810546875 -5.605943024868006 8.950796127319336 -5.661592654911575 11.695781707763672 -5.7172422849551445 15.168719618183733 -5.874846720863101 18.641657528603794 -6.032451156771057 22.541059225511503 -6.40151011922819 26.440460922419213 -6.770569081685324 29.916813452109746 -6.792766639336307 33.39316598180028 -6.81496419698729 36.89412726085879 -6.9222481549272565 40.395088539917296 -7.029532112867223 43.47735178574888 -7.372648011403273 46.55961503158046 -7.715763909939324 50.07195932485115 -7.777443016842685 53.58430361812184 -7.839122123746048 57.43346734685418 -7.851054939894963 61.28263107558652 -7.862987756043878 65.07055492165361 -7.865542220934239 68.8584787677207 -7.8680966858246 72.13729367160937 -7.877987166247831 75.41610857549803 -7.887877646671061 78.78898277611205 -7.7728340328912395 82.16185697672606 -7.657790419111418 85.38899564495415 -7.332033471262015 88.61613431318224 -7.006276523412613 92.5957699828161 -7.011274320413813 96.57540565244994 -7.0162721174150136 100.59199381667092 -6.887366229368465 104.6085819808919 -6.758460341321916 107.82287480911938 -5.972237816299545 111.03716763734688 -5.186015291277173 114.4530166110313 -2.934459927868169 117.8688655847157 -0.6829045644591645 120.05664214673368 3.300864362504966 122.24441870875164 7.284633289469096 123.32088827609745 10.936239376081106 124.39735784344326 14.587845462693116 125.2373612319493 17.836587795805492 126.07736462045533 21.08533012891787 126.09006222827699 23.255909250698647 126.10275983609864 25.426488372479422 125.3707970982101 25.28378980773211 124.63883436032157 25.141091242984796 125.57968702631507 26.863249059765213 126.52053969230857 28.58540687654563 124.77463275551366 26.80658841547533 123.02872581871877 25.027769954405027 125.42535485791308 26.29539580511154 127.82198389710737 27.56302165581805 128.2051562458311 30.24702705820873 128.5883285945548 32.93103246059941 126.64214566669266 34.81864419509003 124.6959627388305 36.70625592958065 122.02491514358525 36.241271206365575 119.35386754834 35.7762864831505 118.1600457068893 33.342052422965644 116.96622386543861 30.907818362780787 118.23384971614512 28.511189323586486 119.50147556685162 26.114560284392187 122.1854809692423 25.731387935668465 124.86948637163299 25.34821558694474 126.7570981061236 27.294398514806893 128.64470984061424 29.240581442669047 128.17972511739916 31.911629037914295 127.71474039418408 34.582676633159544 125.28050633399923 35.77649847461025 122.84627227381438 36.97032031606095 121.07594232887888 35.24112751576226 119.3056123839434 33.51193471546357 117.8785395123423 30.754140161629785 116.4514666407412 27.996345607796005 115.44968228509985 24.290126780389542 114.4478979294585 20.583907952983083 113.83888765786956 17.369516853758448 113.22987738628062 14.15512575453381 111.79927469864043 11.096923133123406 110.36867201100023 8.038720511713002 107.5283154355946 6.646291853032654 104.68795886018898 5.253863194352306 100.63168225631321 5.0517343225497005 96.57540565243744 4.849605450747094 92.59264601876833 4.844439807066625 88.60988638509923 4.839274163386155 85.28905968755333 4.4776430090222235 81.96823299000744 4.116011854658293 78.66024722541513 4.001944750664678 75.35226146082283 3.8878776466710625 72.10537011429143 3.8779871662503327 68.85847876776003 3.868096685829603 65.07055492300566 3.8655422210976544 61.28263107825128 3.8629877563657065 57.433659712846925 3.851065431167002 53.58468834744257 3.8391431059682977 50.13118391283405 3.8477907039254733 46.677679478225514 3.8564383018826485 43.55692290945655 4.154097620372092 40.43616634068759 4.451756938861536 36.92572288325534 4.5527687303593085 33.41527942582309 4.653780521857081 29.79590508924518 4.5997711238339445 26.176530752667272 4.545761725810807 22.363909953098315 4.8832845989924 18.551289153529353 5.220807472173995 15.123535430646513 5.302358211897903 11.695781707763672 5.383908951621811 8.950796127319336 5.3282593215782414 6.205810546875 5.272609691534672 3.9993896484375 5.21319407533481 1.79296875 5.153778459134948 0.896484375 5.153778459134948 0 5.153778459134948 -1.5636395902887805 4.645721158440571 -3.127279180577561 4.137663857746195 -4.093661593530987 2.807552576295791 -5.060044006484413 1.4774412948453874 -5.060044006484413 -0.16666666666666707 -5.060044006484413 -1.8107746281787216 -4.093661593530987 -3.140885909629125 -3.1272791805775615 -4.470997191079528 -0.6671552152887807 -4.979054491773905 Z"></path></g><g transform="translate(160 99) rotate(0 -75 -28)" stroke="none" fill="#000000"><path d="M -5.323382568847842 -1.620849609375 Q -5.323382568847842 -1.620849609375 -5.38647923830197 -3.4388351440429688 -5.449575907756096 -5.2568206787109375 -5.38647923830197 -3.4388351440429688 -5.323382568847842 -1.620849609375 -5.38647923830197 -3.4388351440429688 -5.449575907756096 -5.2568206787109375 -5.630436496322706 -7.551692075496458 -5.811297084889316 -9.846563472281979 -6.367541431942621 -12.874614546181723 -6.923785778995926 -15.902665620081468 -7.593605940504996 -19.023174975295937 -8.263426102014066 -22.14368433051041 -9.521539320743326 -25.75989840579032 -10.779652539472588 -29.37611248107023 -12.693334280280492 -32.97847517955413 -14.607016021088398 -36.58083787803803 -16.884061938576675 -38.68782633302688 -19.16110785606495 -40.794814788015714 -22.612746693169367 -41.87034494198203 -26.064385530273782 -42.94587509594835 -29.333919731475184 -43.96052963272193 -32.60345393267659 -44.975184169495506 -35.78334081784524 -45.179439324399546 -38.96322770301389 -45.383694479303585 -42.85290910133336 -46.21671530414843 -46.74259049965283 -47.049736128993274 -51.020521549209015 -48.049091251708354 -55.2984525987652 -49.048446374423435 -58.387351021501786 -48.53449076533461 -61.47624944423836 -48.020535156245785 -64.90748759224958 -48.02100929153086 -68.3387257402608 -48.021483426815934 -71.61732031721965 -48.02526774019621 -74.89591489417849 -48.02905205357649 -78.06796289715425 -48.034741920892856 -81.24001090013 -48.04043178820921 -84.69628763899739 -48.042132535340784 -88.15256437786478 -48.04383328247236 -91.77810957085971 -48.04284689405161 -95.40365476385465 -48.04186050563085 -99.38024770600524 -48.18435771277481 -103.35684064815584 -48.32685491991878 -107.22645987203916 -48.73605468365274 -111.09607909592246 -49.1452544473867 -114.58444162408492 -49.226010048387856 -118.07280415224737 -49.306765649389014 -121.74315150854024 -49.67334447978104 -125.4134988648331 -50.03992331017307 -129.10683155674795 -50.06958425029209 -132.80016424866278 -50.099245190411104 -135.95972123733208 -50.095376967903654 -139.11927822600134 -50.091508745396204 -141.78954780755944 -50.72722636470996 -144.45981738911755 -51.362943984023715 -144.94567621555234 -51.307378627386676 -145.4315350419871 -51.251813270749636 -146.98731483057324 -50.27430215719848 -148.54309461915938 -49.29679104364731 -150.37631352412797 -49.42043235613967 -152.20953242909658 -49.54407366863203 -153.6199631375685 -50.72164062820947 -155.03039384604045 -51.89920758778692 -154.26114714391971 -53.030671029174435 -153.49190044179898 -54.16213447056195 -150.56203949469383 -57.550130573183395 -147.6321785475887 -60.938126675804845 -145.30699678791092 -59.56348718390878 -142.98181502823317 -58.18884769201271 -142.727214191078 -55.49974331286742 -142.4726133539228 -52.81063893372214 -144.49849387899832 -51.0240466337448 -146.5243744040738 -49.23745433376747 -149.1605406323208 -49.826293501340814 -151.79670686056778 -50.415132668914154 -152.8698255986024 -52.89394692623507 -153.94294433663703 -55.37276118355598 -152.56830484474096 -57.69794294323374 -151.19366535284487 -60.0231247029115 -148.5045609736996 -60.27772554006668 -145.81545659455432 -60.53232637722187 -144.02886429457698 -58.506445852146385 -142.24227199459963 -56.4805653270709 -142.831111162173 -53.8443990988239 -143.4199503297463 -51.20823287057691 -145.89876458706723 -50.135114132542284 -148.37757884438815 -49.061995394507655 -146.90455694318763 -50.15690433262864 -145.4315350419871 -51.251813270749636 -146.98731483057324 -50.27430215719848 -148.54309461915938 -49.29679104364731 -150.37631352412797 -49.42043235613967 -152.20953242909658 -49.54407366863203 -153.6199631375685 -50.72164062820948 -155.03039384604045 -51.899207587786925 -151.59214934335205 -56.26990071915058 -148.15390484066364 -60.64059385051423 -144.6587957315984 -61.278218450876984 -141.16368662253316 -61.91584305123974 -138.0318925499103 -61.90934440164448 -134.90009847728743 -61.902845752049224 -131.4834345341484 -61.89572507650898 -128.06677059100934 -61.88860440096874 -124.45589149481529 -61.52312419420626 -120.84501239862122 -61.15764398744378 -116.99796978156473 -61.039850434253424 -113.15092716450823 -60.922056881063064 -109.92525429563368 -60.548480775530976 -106.69958142675912 -60.174904669998895 -103.11766319313878 -60.06249698066397 -99.53574495951845 -59.95008929132905 -95.99711059059638 -59.954821649436404 -92.45847622167429 -59.95955400754376 -89.2902015132061 -59.958563387354864 -86.12192680473791 -59.95757276716597 -82.91598520262897 -59.95887607821247 -79.71004360052002 -59.960179389258975 -76.39685158861698 -59.966813622424006 -73.08365957671393 -59.973447855589036 -69.72038535104161 -59.97641141181322 -66.35711112536931 -59.979374968037405 -62.98735671212793 -59.97901148099514 -59.61760229888654 -59.978647993952876 -56.45521015485446 -59.977088308268726 -53.29281801082239 -59.97552862258458 -50.134226079017616 -59.58875775273083 -46.975634147212844 -59.20198688287708 -43.65768380367386 -58.65377758406476 -40.33973346013488 -58.105568285252446 -36.868009387506646 -57.641576343745974 -33.39628531487842 -57.1775844022395 -29.866361573178953 -56.25707078410735 -26.336437831479486 -55.336557165975194 -22.756891439334552 -54.36363467376134 -19.177345047189615 -53.390712181547485 -15.677537006679273 -51.99722377530857 -12.177728966168932 -50.60373536906965 -9.719579369332704 -48.21781398899189 -7.261429772496478 -45.83189260891413 -5.640428464786802 -43.16907651474557 -4.019427157077126 -40.506260420577014 -2.192634004638335 -37.449940864687875 -0.3658408521995443 -34.39362130879873 0.6587595201326353 -30.951503309415546 1.6833598924648148 -27.509385310032364 2.8147662135490377 -23.68516361744619 3.946172534633261 -19.860941924860015 4.638552357219781 -16.491234333460987 5.3309321798063 -13.121526742061956 5.437501318372492 -11.12453918136984 5.544070456938685 -9.127551620677723 5.4968231823473905 -7.19218614969433 5.449575907756096 -5.2568206787109375 5.38647923830197 -3.4388351440429688 5.323382568847842 -1.620849609375 5.323382568847842 -0.8104248046875 5.323382568847842 0 4.815044767302555 1.5645028831397914 4.306706965757268 3.1290057662795827 2.9758613235453075 4.095921723557178 1.645015681333347 5.062837680834774 -3.3306690738754696e-16 5.062837680834774 -1.6450156813333476 5.062837680834774 -2.9758613235453075 4.095921723557179 -4.306706965757267 3.129005766279583 -4.815044767302554 0.7540780784522916 Z"></path></g><g transform="translate(80 40) rotate(0 0 -13)" stroke="none" fill="#000000"><path d="M -5.25 0 Q -5.25 0 -4.748669610234237 -1.542936287267742 -4.247339220468474 -3.085872574535484 -4.748669610234237 -1.542936287267742 -5.25 0 -4.748669610234237 -1.542936287267742 -4.247339220468474 -3.085872574535484 -2.934839220468474 -4.0394596425425195 -1.6223392204684741 -4.993046710549556 3.3306690738754696e-16 -4.993046710549556 1.6223392204684748 -4.993046710549556 2.9348392204684743 -4.03945964254252 4.247339220468474 -3.0858725745354847 4.748669610234237 -1.5429362872677426 5.25 -6.429395695523604e-16 4.748669610234237 1.5429362872677415 4.247339220468474 3.0858725745354834 2.9348392204684743 4.0394596425425195 1.6223392204684748 4.993046710549556 8.881784197001252e-16 4.993046710549557 -1.622339220468473 4.993046710549557 -2.9348392204684717 4.039459642542523 -4.24733922046847 3.0858725745354887 -4.748669610234235 1.5429362872677443 Z"></path></g><g transform="translate(81 36) rotate(0 -0.5 -10.5)" stroke="none" fill="#000000"><path d="M -5.328554792020858 -1.8433670170082148 Q -5.328554792020858 -1.8433670170082148 -5.516314708363174 -4.055704989237003 -5.70407462470549 -6.268042961465791 -5.516314708363174 -4.055704989237003 -5.328554792020858 -1.8433670170082148 -5.516314708363174 -4.055704989237003 -5.70407462470549 -6.268042961465791 -6.11031639249601 -8.910265749058388 -6.516558160286531 -11.552488536650984 -5.896591124049 -15.502992004958973 -5.27662408781147 -19.453495473266962 -2.7459407649395104 -23.071944926761486 -0.2152574420675511 -26.69039438025601 2.118718546871915 -25.579008505636846 4.452694535811381 -24.467622631017683 4.925441141439573 -21.926140164795264 5.398187747067765 -19.38465769857285 3.6199587238474513 -17.50835174798113 1.8417297006271376 -15.63204579738941 -0.7214504950957519 -15.967798330518983 -3.2846306908186413 -16.303550863648557 -4.519600703626429 -18.57455758902708 -5.754570716434216 -20.845564314405607 -4.643184841815054 -23.179540303345075 -3.531798967195891 -25.513516292284542 -0.9903165009734736 -25.986262897912734 1.551165965248944 -26.459009503540926 3.4274719158406626 -24.680780480320614 5.303777866432381 -22.902551457100305 4.968025333302809 -20.339371261377412 4.632272800173237 -17.77619106565452 2.3612660747947167 -16.54122105284673 0.09025934941619612 -15.306251040038944 1.686375220811099 -16.01703419702449 3.2824910922060018 -16.727817354010035 3.8864620554401803 -13.930537514585406 4.490433018674359 -11.133257675160776 4.842574110587896 -8.711666695583506 5.194715202501433 -6.290075716006237 5.261634997261146 -4.094383249645496 5.328554792020858 -1.898690783284754 5.328554792020858 -0.9631763332115117 5.328554792020858 -0.02766188313826956 4.827852710591554 1.5410025530443519 4.32715062916225 3.109666989226973 3.0000363147832028 4.084437877314018 1.6729220004041552 5.059208765401064 0.02630801421164597 5.067756757387204 -1.6203059719808632 5.076304749373343 -2.957469053612244 4.115364802855432 -4.294632135243625 3.1544248563375215 -4.811593463632242 0.6555289196646533 Z"></path></g><g transform="translate(56 10) rotate(0 26.5 2)" stroke="none" fill="#000000"><path d="M NaN NaN Q NaN NaN NaN NaN 48.54550588006031 -2.655877849624779 NaN NaN NaN NaN NaN NaN 48.54550588006031 -2.655877849624779 50.0632713346027 -3.608701454715202 51.581036789145095 -4.561525059805625 53.3689904984534 -4.440255398346382 55.15694420776171 -4.318985736887139 56.53214862519161 -3.16994369775147 57.90735304262151 -2.0209016586158004 57.154589807731526 -0.9170366619003429 56.40182657284154 0.18682833481511452 54.05018428775084 3.49256392202181 51.698542002660126 6.798299509228506 49.429620520411866 5.456915405853205 47.16069903816361 4.115531302477904 46.91226298790352 1.4914894708131012 46.663826937643435 -1.1325523608517014 48.64069432693036 -2.875914437578598 50.61756171621728 -4.619276514305495 53.189944760798916 -4.044679718852791 55.76232780538055 -3.4700829234000867 56.80947804979822 -1.0512418019099612 57.856628294215895 1.3675993195801641 56.51524419084059 3.6365208018284245 55.17386008746529 5.905442284076685 52.54981825580049 6.1538783343367705 49.92577642413569 6.402314384596856 48.182414347408795 4.4254469953099385 46.4390522706819 2.4485796060230216 47.013649066134604 -0.12380343855861642 47.5882458615873 -2.6961864831402544 50.00708698307742 -3.743336727557929 52.42592810456754 -4.790486971975604 50.485716992313925 -3.7231824108001916 48.54550588006032 -2.6558778496247797 50.0632713346027 -3.6087014547152023 51.58103678914509 -4.561525059805625 53.3689904984534 -4.440255398346382 55.15694420776171 -4.318985736887139 56.53214862519161 -3.1699436977514694 57.90735304262151 -2.0209016586157995 NaN NaN NaN NaN NaN NaN NaN NaN NaN NaN NaN NaN NaN NaN NaN NaN NaN NaN NaN NaN NaN NaN NaN NaN NaN NaN Z"></path></g><g transform="translate(108 11) rotate(0 -25.5 1)" stroke="none" fill="#000000"><path d="M 0.006534912041423205 5.249995932848388 Q 0.006534912041423205 5.249995932848388 -1.5370242084920338 4.750586493922533 -3.0805833290254907 4.2511770549966785 -1.5370242084920338 4.750586493922533 0.006534912041423205 5.249995932848388 -1.5370242084920338 4.750586493922533 -3.0805833290254907 4.2511770549966785 -4.035803386303229 2.9398650446632986 -4.991023443580968 1.6285530343299184 -4.993042842458513 0.006215070680410828 -4.995062241336058 -1.6161228929690967 -4.043109640079031 -2.92980884905991 -3.091157038822005 -4.243494805150723 -1.5488459754317145 -4.746745368999555 -0.006534912041423847 -5.249995932848388 1.5370242084920331 -4.750586493922533 3.0805833290254903 -4.2511770549966785 4.035803386303229 -2.939865044663299 4.991023443580968 -1.628553034329919 4.993042842458513 -0.006215070680412049 4.995062241336059 1.616122892969095 4.043109640079034 2.9298088490599077 3.091157038822009 4.24349480515072 1.548845975431716 4.746745368999554 Z"></path></g><g transform="translate(57 11) rotate(0 24.5 1)" stroke="none" fill="#000000"><path d="M 0.21418132259907227 -5.245629262638536 Q 0.21418132259907227 -5.245629262638536 1.7353805860160982 -4.681769929781702 3.256579849433124 -4.117910596924869 1.7353805860160982 -4.681769929781702 0.21418132259907227 -5.245629262638536 1.7353805860160982 -4.681769929781702 3.256579849433124 -4.117910596924869 4.155827705147431 -2.7676003213720692 5.055075560861737 -1.41729004581927 4.988889892300921 0.2036985425265624 4.922704223740104 1.8246871308723949 3.9163657067262623 3.0971914866388626 2.91002718971242 4.3696958424053305 1.3479229335566743 4.807662552521933 -0.21418132259907163 5.245629262638536 -1.7353805860160976 4.681769929781702 -3.2565798494331233 4.117910596924869 -4.155827705147431 2.7676003213720697 -5.055075560861737 1.4172900458192708 -4.9888898923009215 -0.20369854252656117 -4.922704223740105 -1.824687130872393 -3.9163657067262645 -3.0971914866388603 -2.910027189712424 -4.369695842405328 -1.3479229335566758 -4.807662552521932 Z"></path></g><g transform="translate(106 13) rotate(0 -22.5 -1)" stroke="none" fill="#000000"><path d="M -0.23344788225876761 5.244807154345038 Q -0.23344788225876761 5.244807154345038 -1.7525657413745095 4.675364026029435 -3.271683600490251 4.105920897713831 -1.7525657413745095 4.675364026029435 -0.23344788225876761 5.244807154345038 -1.7525657413745095 4.675364026029435 -3.271683600490251 4.105920897713831 -4.16596549213017 2.752316655494125 -5.06024738377009 1.39871241327442 -4.988108020851289 -0.222022129637505 -4.915968657932488 -1.84275667254943 -3.904962825163185 -3.111556007502243 -2.893956992393882 -4.380355342455056 -1.3302545550675575 -4.812581248400047 0.23344788225876698 -5.244807154345038 1.7525657413745086 -4.675364026029435 3.2716836004902503 -4.105920897713831 4.16596549213017 -2.7523166554941256 5.06024738377009 -1.3987124132744206 4.988108020851289 0.22202212963750378 4.915968657932489 1.8427566725494282 3.904962825163188 3.111556007502241 2.8939569923938864 4.380355342455053 1.3302545550675593 4.812581248400045 Z"></path></g><g transform="translate(58 11) rotate(0 22 1)" stroke="none" fill="#000000"><path d="M 0.11933330430717137 -5.248643592632589 Q 0.11933330430717137 -5.248643592632589 1.6504756368877045 -4.712371550055224 3.1816179694682374 -4.176099507477858 1.6504756368877045 -4.712371550055224 0.11933330430717137 -5.248643592632589 1.6504756368877045 -4.712371550055224 3.1816179694682374 -4.176099507477858 4.1051253394890495 -2.8422634291730695 5.0286327095098615 -1.5084273508682808 4.991756690484029 0.11349271667236815 4.954880671458196 1.7354127842130171 3.9717066492837985 3.0258985022245226 2.9885326271094006 4.316384220236028 1.434599661401115 4.782513906434309 -0.11933330430717073 5.248643592632589 -1.6504756368877038 4.712371550055224 -3.181617969468237 4.176099507477858 -4.1051253394890495 2.8422634291730695 -5.0286327095098615 1.5084273508682815 -4.99175669048403 -0.11349271667236693 -4.954880671458197 -1.7354127842130154 -3.9717066492838007 -3.02589850222452 -2.9885326271094046 -4.316384220236024 -1.4345996614011165 -4.782513906434307 Z"></path></g><g transform="translate(112 12) rotate(0 -33 -1)" stroke="none" fill="#000000"><path d="M -1.55859375 5.313518993646929 Q -1.55859375 5.313518993646929 -3.42919921875 5.34923988055208 -5.2998046875 5.38496076745723 -3.42919921875 5.34923988055208 -1.55859375 5.313518993646929 -3.42919921875 5.34923988055208 -5.2998046875 5.38496076745723 -9.540985107421875 5.228435773692755 -13.78216552734375 5.07191077992828 -21.95592498779297 4.558523657394048 -30.129684448242188 4.045136534859816 -35.71320608523913 4.030112025774099 -41.29672772223607 4.015087516688382 -46.515949969390356 4.038537622168253 -51.73517221654464 4.061987727648123 -54.998639324640656 3.4449233754274573 -58.26210643273667 2.8278590232067913 -62.129877153007385 3.1351219779455786 -65.9976478732781 3.442384932684366 -68.19912513626983 2.3206424044439755 -70.40060239926157 1.1988998762035852 -70.78708949904572 -1.2414763572557528 -71.17357659882987 -3.6818525907150907 -69.42644217074695 -5.428944382619605 -67.67930774266404 -7.176036174524119 -65.23894094168072 -6.7894895204301875 -62.79857414069741 -6.402942866336256 -61.676885337176024 -4.201438229232918 -60.55519653365464 -1.9999335921295807 -61.67693906189503 0.20154367086215952 -62.798681590135416 2.4030209338538997 -65.23905782359475 2.7895080336380476 -67.6794340570541 3.1759951334221954 -69.4265258489586 1.4288607053392812 -71.17361764086311 -0.31827372274363297 -70.78707098676918 -2.7586405237269487 -70.40052433267526 -5.199007324710265 -68.19901969557193 -6.3206961282316545 -65.9975150584686 -7.442384931753043 -61.60542417749567 -7.241333347297592 -57.21333329652275 -7.04028176284214 -54.26723460235337 -6.089152658953571 -51.32113590818399 -5.138023555065002 -46.278331679338706 -4.576555535876692 -41.23552745049342 -4.015087516688382 -35.682605949367804 -4.030112025774099 -30.129684448242188 -4.045136534859816 -21.95592498779297 -4.558523657394048 -13.78216552734375 -5.07191077992828 -9.540985107421875 -5.228435773692755 -5.2998046875 -5.38496076745723 -3.42919921875 -5.34923988055208 -1.55859375 -5.313518993646929 -0.779296875 -5.313518993646929 0 -5.313518993646929 1.5616040511208042 -4.806123079720682 3.1232081022416085 -4.298727165794435 4.088332482803794 -2.970347417382702 5.053456863365978 -1.6419676689709697 5.053456863365978 2.220446049250313e-16 5.053456863365978 1.6419676689709701 4.088332482803794 2.970347417382702 3.123208102241609 4.298727165794434 0.7823071761208045 4.806123079720681 Z"></path></g><g transform="translate(341.5 268) rotate(0 29.5 1)" stroke="none" fill="#000000"><path d="M 62.43029284001453 -2.728987072893702 Q 62.43029284001453 -2.728987072893702 63.49196239767268 -1.2674833963618488 64.55363195533083 0.19402028017000417 63.49196239767268 -1.2674833963618488 62.43029284001453 -2.728987072893702 63.49196239767268 -1.2674833963618488 64.55363195533083 0.19402028017000417 64.55349036265017 2.0004353006250746 64.55334876996949 3.8068503210801445 63.49145011054145 5.26818754543293 62.429551451113404 6.729524769785717 61.32949300599985 6.434713253116039 60.229434560886304 6.139901736446361 56.89754864690945 5.197171960163945 53.565662732932594 4.254442183881529 53.519502265499284 1.5984075108730638 53.473341798065974 -1.0576271621354012 55.5949865441827 -2.6561497751290792 57.716631290299425 -4.254672388122757 60.25693474247518 -3.4778137498617148 62.79723819465094 -2.7009551116006723 63.66189925960734 -0.18918039723528923 64.52656032456375 2.322594317130094 63.00272691681374 4.498503947239276 61.478893509063745 6.674413577348458 58.822858836055275 6.72057404478177 56.16682416304681 6.7667345122150815 54.568301550053135 4.645089766098355 52.96977893705946 2.5234450199816276 53.7466375753205 -0.01685843219412364 54.52349621358154 -2.557161884369875 57.035270927946925 -3.4218229493262804 59.54704564231231 -4.286484014282686 61.72295527242149 -2.762650606532694 63.89886490253067 -1.2388171987827028 63.164578871272596 -1.9839021358382019 62.43029284001453 -2.728987072893701 63.49196239767268 -1.2674833963618486 64.55363195533083 0.1940202801700035 64.55349036265017 2.0004353006250737 64.55334876996949 3.806850321080144 63.49145011054145 5.268187545432931 62.429551451113404 6.7295247697857175 31.214590378331422 5.729390345562713 -0.00037069445056303607 4.72925592133971 -1.3902287387205612 4.277543221860368 -2.7800867829905593 3.825830522381027 -3.6389954975465373 2.6434492107252923 -4.497904212102515 1.4610678990695576 -4.4977896612175705 -0.00035255137276268833 -4.497675110332626 -1.461773001815083 -3.638581048551367 -2.644019650829202 -2.7794869867701086 -3.8262662998433217 29.82540292662221 -3.277626686368512 Z"></path></g><g transform="translate(317 269) rotate(0 0 15)" stroke="none" fill="#000000"><path d="M 5.25 0 Q 5.25 0 4.748669610234237 1.542936287267742 4.247339220468474 3.085872574535484 4.748669610234237 1.542936287267742 5.25 0 4.748669610234237 1.542936287267742 4.247339220468474 3.085872574535484 2.934839220468474 4.0394596425425195 1.6223392204684741 4.993046710549556 -3.3306690738754696e-16 4.993046710549556 -1.6223392204684748 4.993046710549556 -2.9348392204684743 4.03945964254252 -4.247339220468474 3.0858725745354847 -4.748669610234237 1.5429362872677426 -5.25 6.429395695523604e-16 -4.748669610234237 -1.5429362872677415 -4.247339220468474 -3.0858725745354834 -2.9348392204684743 -4.0394596425425195 -1.6223392204684748 -4.993046710549556 -8.881784197001252e-16 -4.993046710549557 1.622339220468473 -4.993046710549557 2.9348392204684717 -4.039459642542523 4.24733922046847 -3.0858725745354887 4.748669610234235 -1.5429362872677443 Z"></path></g><g transform="translate(318 311) rotate(0 -1 -20)" stroke="none" fill="#000000"><path d="M -5.330965746698745 -1.726318359375 Q -5.330965746698745 -1.726318359375 -5.383358123310593 -4.200515270233154 -5.435750499922442 -6.674712181091309 -5.383358123310593 -4.200515270233154 -5.330965746698745 -1.726318359375 -5.383358123310593 -4.200515270233154 -5.435750499922442 -6.674712181091309 -5.431809224632005 -10.527735941112041 -5.427867949341567 -14.380759701132774 -5.504610127700795 -17.697260785731487 -5.581352306060023 -21.0137618703302 -5.632534465684988 -24.34777851305614 -5.683716625309953 -27.681795155782083 -5.726159619967113 -30.85868654036945 -5.768602614624275 -34.03557792495682 -5.375625379621851 -35.96749161883706 -4.982648144619427 -37.899405312717306 -4.16925369784401 -36.11412694046217 -3.355859251068593 -34.32884856820703 -5.357253747872237 -36.07179771719866 -7.358648244675881 -37.81474686619029 -7.1249629320507974 -40.45838883182593 -6.891277619425713 -43.10203079746157 -4.615169561745306 -44.46686916795417 -2.339061504064899 -45.83170753844677 0.10297868116723174 -44.79252930468802 2.5450188663993627 -43.753351070929256 3.1397012214890103 -41.166885419823174 3.734383576578658 -38.58041976871709 1.991434427587027 -36.57902527191345 0.24848527859539615 -34.5776307751098 -2.395156687040245 -34.81131608773489 -5.038798652675887 -35.04500140035997 -6.403637023168487 -37.321109458040375 -7.768475393661087 -39.59721751572078 -6.729297159902327 -42.039257700952916 -5.690118926143567 -44.48129788618505 -3.103653275037493 -45.07598024127469 -0.517187623931419 -45.670662596364345 2.232730260344004 -42.855145807765865 4.982648144619427 -40.03962901916738 5.375625379621851 -37.0376034720621 5.768602614624275 -34.03557792495682 5.726159619967113 -30.85868654036945 5.683716625309953 -27.681795155782083 5.632534465684988 -24.34777851305614 5.581352306060023 -21.0137618703302 5.504610127700795 -17.697260785731487 5.427867949341567 -14.380759701132774 5.431809224632005 -10.527735941112041 5.435750499922442 -6.674712181091309 5.383358123310593 -4.200515270233154 5.330965746698745 -1.726318359375 5.330965746698745 -0.8631591796875 5.330965746698745 0 4.82190381610438 1.566731523192927 4.312841885510016 3.133463046385854 2.98010044883533 4.101756378964977 1.6473590121606434 5.0700497115441 -3.3306690738754696e-16 5.0700497115441 -1.647359012160644 5.0700497115441 -2.9801004488353295 4.101756378964978 -4.312841885510015 3.1334630463858546 -4.8219038161043795 0.7035723435054273 Z"></path></g><g transform="translate(338 270) rotate(0 0.5 19)" stroke="none" fill="#000000"><path d="M 5.311649412577451 1.74609375 Q 5.311649412577451 1.74609375 5.351858400088096 3.64013671875 5.39206738759874 5.5341796875 5.351858400088096 3.64013671875 5.311649412577451 1.74609375 5.351858400088096 3.64013671875 5.39206738759874 5.5341796875 5.357121087819844 7.9588623046875 5.3221747880409485 10.383544921875 5.306182440837766 15.196109073799207 5.290190093634584 20.008673225723413 5.822913898680735 24.27752385135039 6.355637703726886 28.54637447697737 6.523871584122018 33.24116639345648 6.692105464517151 37.935958309935586 5.51943883667455 40.23872741465488 4.34677220883195 42.54149651937418 1.794516719291031 42.946323007901896 -0.7577387702498879 43.351149496429606 -2.5854284160766046 41.52428247109819 -4.4131180619033215 39.69741544576678 -4.009440611531597 37.144977966460615 -3.6057631611598726 34.592540487154444 -1.3035222113101042 33.41883729701638 0.9987187385396642 32.24513410687832 3.301487843258959 33.41780073472091 5.604256947978254 34.590467362563516 6.009083436505971 37.142722852104434 6.413909925033688 39.69497834164535 4.587042899702277 41.52266798747207 2.760175874370866 43.350357633298785 0.2077383950646965 42.94668018292706 -2.344699084241473 42.54300273255534 -3.5184022743795396 40.240761782705576 -4.6921054645176055 37.938520832855815 -4.492181684938325 33.38491345813211 -4.292257905359044 28.831306083408407 -4.53066062029598 24.467373414835624 -4.769063335232916 20.10344074626284 -5.045619061636932 15.24349283406892 -5.3221747880409485 10.383544921875 -5.357121087819844 7.9588623046875 -5.39206738759874 5.5341796875 -5.351858400088096 3.64013671875 -5.311649412577451 1.74609375 -5.311649412577451 0.873046875 -5.311649412577451 0 -4.804432027757159 -1.561054595030502 -4.297214642936865 -3.122109190061004 -2.969302289792502 -4.086893988084057 -1.6413899366481393 -5.05167878610711 3.3306690738754696e-16 -5.05167878610711 1.64138993664814 -5.05167878610711 2.969302289792502 -4.086893988084057 4.297214642936864 -3.1221091900610047 4.804432027757158 -0.6880077200305024 Z"></path></g></svg>